/* XPM */
static char *_7ec0045249647d3b24eff32eadababfo8zV5AQxRMQF3ycZ[] = {
/* columns rows colors chars-per-pixel */
"52 50 111 2 ",
"   c None",
".  c black",
"X  c gray5",
"o  c #141414",
"O  c #1E1E1E",
"+  c #220405",
"@  c #220C0C",
"#  c #320000",
"$  c #3C0000",
"%  c #221515",
"&  c #221E1E",
"*  c #331516",
"=  c #3C1314",
"-  c #331A1B",
";  c #3C1A1B",
":  c #3C1F20",
">  c #242222",
",  c #2A2525",
"<  c #2D2D2D",
"1  c #312121",
"2  c #3B2324",
"3  c #3A2F2F",
"4  c #343434",
"5  c #383434",
"6  c #373838",
"7  c #3C3C3C",
"8  c #4D0103",
"9  c #49090B",
"0  c #520001",
"q  c #5A0002",
"w  c #500608",
"e  c #521314",
"r  c #521A1B",
"t  c #650001",
"y  c #6A0003",
"u  c #740002",
"i  c #7D0002",
"p  c #630E10",
"a  c #7F1114",
"s  c #701A1C",
"d  c #521F20",
"f  c #482021",
"g  c #432B2C",
"h  c #4C2B2C",
"j  c #532324",
"k  c #552B2C",
"l  c #5A2A2A",
"z  c #433A3A",
"x  c #513535",
"c  c #773C3C",
"v  c #7B3838",
"b  c #43423E",
"n  c #444444",
"m  c #4C4C4C",
"M  c #4E5050",
"N  c #555555",
"B  c #565858",
"V  c #5C5C5C",
"C  c #78705B",
"Z  c #5F6060",
"A  c #626262",
"S  c #6B6B6B",
"D  c #747474",
"F  c gray50",
"G  c #850003",
"H  c #8C0003",
"J  c #900003",
"K  c #962F30",
"L  c #843A3A",
"P  c #A02C2E",
"I  c #A73133",
"U  c #B33C3D",
"Y  c #804242",
"T  c #984646",
"R  c #A44F4F",
"E  c #AA4E4E",
"W  c #B75454",
"Q  c #BB5757",
"!  c #C55B5B",
"~  c #DF6767",
"^  c #E76565",
"/  c #E46969",
"(  c #F77272",
")  c #9E906D",
"_  c #A49672",
"`  c #A79873",
"'  c #AA9C76",
"]  c #AC9D79",
"[  c #B2A27D",
"{  c #8A8A8A",
"}  c #B6A681",
"|  c #BAAB85",
" . c #A5A5A5",
".. c #ACADAD",
"X. c gray69",
"o. c #BBBBBB",
"O. c #C1B18A",
"+. c #C5B58E",
"@. c #C8B892",
"#. c #BFC1C1",
"$. c #C6C6C6",
"%. c gray79",
"&. c #CECECE",
"*. c #D0D0D0",
"=. c #D3D5D5",
"-. c #D7D8D8",
";. c #DADBDB",
":. c #DDDEDE",
">. c #DFE1E1",
",. c #E0E1E1",
"<. c #E2E3E3",
/* pixels */
"                                                                              ` ] [ '                   ",
"                                                                          _ } [ ] ] [ [                 ",
"                                                                  n z   _ | ]         | '               ",
"                                                                n S A n C _           ` [               ",
"                                                              n A D A Z M b             }         ] | ) ",
"                                                            7 V D S Z A A N 7           [ |   _ | O.]   ",
"                                            < < < <       4 N D S A A A V N 7             | @.@.} )     ",
"                                    4 7 n n N m m n n n 7 7 n V V A A Z N n                 `           ",
"                                4 n N V A A A A A A V N N m n 7 n N V N N 7                             ",
"                            4 n V S S A A A A A A A A A N N N N n 7 n N n                               ",
"                          7 N D D D D S A A A A A A A A V V N N N m 7 n 7                               ",
"                        4 V D D D D D D D A A A A A A A A A V N N N N 7 <                               ",
"                      4 N D D D D D D D D A A A A A A A A A A N N N N N 7                               ",
"                    4 N S D D D D D D D D S A A A A A A A A A Z N N N N N 7                             ",
"                  < n A S D D D D D D D D S A A A A A A A A A A V N N N N m 4                           ",
"                  7 V A A D D D D D D D D A A A A Z A A A A A A A N N N N N n 4                         ",
"                4 m A A N A D D D D D D S A A A A N V A A A A A A N N N N N N 6                         ",
"                7 V A A N n V D D D D S A A A V b m Z A A A A A Z V N N N N N n <                       ",
"                n A A V m < o m S S A A A A N > O n V A A A A A A Z N N N N N N 6                       ",
"              4 N A A V n < & < N A A A A Z 6 & , n B A A A A A A Z N N N N N N z                       ",
"              6 V A A Z V Z A A A A A A A A A Z Z V V A A A A A A Z N N N N N N n >                     ",
"              7 V A A A A A A A A A Z A A A A Z A A A A A A Z A A Z N N N N N N n o . .                 ",
"              b A A A A A A N n n n n n n n m V A A A A A A A A A Z N N N N N N n X . .                 ",
"              z V A A V n m F ..$.&.%.o. .{ S m b M Z A A A A A A V N N N N N N n o .                   ",
"              7 V A N , V X.*.;.;.:.>.<.>.=.#...{ M 6 B A A A A A N N N N N N V 4 X                     ",
"              7 B B - q p e e e r r d j k k k h h g @ % M A A A V N N N N N N n O ,                     ",
"              7 N 4 q J G y y y y y y y t y t y t 0 8 $ % M A A V N N N N N N 4 < <                     ",
"  . . .       4 m - G H G y y y y y y y y y y y y t 0 0 $ > Z V V N N N N V n < 4                       ",
"  . . . . .   , n - G H G u y y y y y y y y y y y y t 0 8 + n V N N N N N N 7 n 7                       ",
"              O 7 : u H H i y y y y y y y y y y t y t 0 8 # , N N N N N N N N n 4                       ",
"                6 6 w H H G y y y y y y y y y a P U U K s 9 & N N N N N N N N n                         ",
"                < b , y J H G y y t t t t y I ^ ( ( ( ~ W L & N N N N N N N N 4                         ",
"                  6 n * u H u 8 = ; : 2 ; f Y R ! / ( ~ Q v , N N N N N N N n                           ",
"                    7 n * = 5 n m N B V B N M n z x c T E l 4 N N N N N N n 4                           ",
"                    4 n m m N N N N N N N N N N N N n 6 2 & n N N N N N m 6                             ",
"                      4 n N N N N N N N N N B N N N N N m n N N N N N N 7                               ",
"                        4 n N N N N N N N N N N N N N N N N N N N N m 7                                 ",
"                          4 7 m N N N N N N N N N N N N N N N N N n 4                                   ",
"                              4 n N N N N N N N N N N N N N N m 7 4                                     ",
"                                4 7 n n N N N N N N N N N n 7 4                                         ",
"                                    > < 7 7 n n n n b 7 4 4                                             ",
"                                    .                                                                   ",
"                                                                                                        ",
"                                  .                               . . . .                               ",
"                          . .                                           . .                             ",
"                        . . . . .                                       . .                             ",
"                            . . .                                       . . .                           ",
"                              .                                                                         ",
"                                                                                                        ",
"                                                                                                        "
};
