/* XPM */
static char *_7560eb3f0424c3cab66f8dd0a9fa0e6D22jSWMZEuEsaQJB[] = {
/* columns rows colors chars-per-pixel */
"32 32 5 1 ",
"  c None",
". c #72683E",
"X c #DFB500",
"o c #F8D634",
"O c #FFF83A",
/* pixels */
"                                ",
"                                ",
"                                ",
"                                ",
"                                ",
"                                ",
"                                ",
"             ......             ",
"            .OOO.OO.            ",
"           .OoooO.oo.           ",
"          .OooOOoO.OO.          ",
"          .OoOOOoO.oo.          ",
"          .OoOOOoO.OO.          ",
"         .OoOOOOOoO.oo.         ",
"         .OoOOOOOoO.OO.         ",
"         .ooOOOOOoo.OO.         ",
"         .oooOOOXoo.oo.         ",
"         .oooXOOooo.OO.         ",
"         .ooooOOOoo.oo.         ",
"          .ooXOOOX.XX.          ",
"          .XoOOOOX.oo.          ",
"          .XoXXXXX.XX.          ",
"           .ooooX.oo.           ",
"            .XXX.XX.            ",
"             ......             ",
"                                ",
"                                ",
"                                ",
"                                ",
"                                ",
"                                ",
"                                "
};
