/* XPM */
static char *result[] = {
/* columns rows colors chars-per-pixel */
"46 38 5 1 ",
"  c #6ADD4B",
". c #499848",
"X c #328E41",
"o c #35A541",
"O c white",
/* pixels */
"  . ...... .......... . ...... .  . ...... ...",
"    ......X..........X. ......      ......X...",
" X X.. ........ ..............X  X X.. .......",
"XXX........... X...............XXXX...........",
".............. ............ ..................",
"....... ......X........................ ......",
"...... X...........o.o...o............ X......",
".... . .....o.oo.oXXoXoXXXo.oX.o.... . .......",
"....X.X.. .oo.XXXoXoXXoXoXXoXX.oo. .X.X..  ...",
"......... ooooXooXooXoXXoXoXoXoXoo ......  ...",
"..........XoXXoooXooooXooooooXXoXX............",
".. ......oXoXooooooooooooooooooXoXo...........",
"...........ooooooooooooooooooooXooo...........",
".........XXXXoooooooooooooooooooXXXo..........",
".........oXooooooooooooooooooooooXXo..........",
"..........oXooooooooooooooooooooooX...........",
".........oXooooooooooooooooooooXXoo...........",
". .. ...oXXXoooooooooooooooooooooXX..... .....",
". . X....XooooooooooooooooooooooooXo.. .  . ..",
". . ......XXXoooooooooooooooooooXXo...      ..",
".X.X......ooXXoooooooooooooooooooXXo..X  X X..",
".........oXXoooooooooooooooooooXXoo....XXXX...",
"..........oXXoooooooooooooooooooXXX...........",
".........oXooooooooooooooooooooooooX....... ..",
"..........XXoooooooooooooooooooooXXXo. ... X..",
"..... ...ooXXoooooooooooooooooooooXo.  . . ...",
".....X ...XooooooooooooooooooooooXo.. X...X...",
"...... ..oXXooooooooooooooooooooooXo.X........",
"......X..oXXXoooooooooooooooooooXXXX..........",
"..........oooXooooooooooooooooXoXo............",
"..........oXoXooooooooooooooooXXoooo..........",
" ..........XXoXXooooooXooooXooooXXo........ ..",
"  . .......ooXoXoXoXoXXoXooXoooXXo......... ..",
"    ......X.oo.XXoXXoXoXXoXoXXoo. .. ......X..",
" X X.. ......o.Xo.oXXXoXoXXo.o... . X.........",
"XXX............o................. . ..........",
"........................... .....X.X..........",
"....... ......................................"
};
