/* XPM */
static char *_fd4a4b10e254b639536a5b27d4a4394es3svyUaMyOm1Te4[] = {
/* columns rows colors chars-per-pixel */
"83 82 7 1 ",
"  c None",
". c #302124",
"X c #004337",
"o c #006B46",
"O c #2F8136",
"+ c #499231",
"@ c #64A42C",
/* pixels */
"                                                                                   ",
"                                                                                   ",
"                                                                                   ",
"                                 o                                                 ",
"                                .oo.            o                                  ",
"                             o ..oOo.    o     oo                                  ",
"                            oo..oO+o.o.  oo.  oOo. o  o                            ",
"                       o  .oOoo.oO@OoOo..oOo.oOOo.oOo.oo  o                        ",
"                   o. oo. oOOoOoOO@+oOo.oO+o.oO+oooOooOo .oo .o                    ",
"                  .Xo.oOo.o+OoOo+O@@OOOooO@OoOO@oOoOOoOo.oOo.oX.                   ",
"             Xo  ooXOoO@ooO@OoOO@O+@OOOoOO@+oOO@OOoO@O@Ooo@OoOXoo  oX              ",
"             .Xo.XOoOo@@oO@@OoO@@OO+OO+OO@@+OOO@@OoO@O@@Oo@@oOoOX.oX.              ",
"             .XOoX@OOo@OOO@+OOO@+OOOO@+OO@+OOOO+@OOOOOO@OOO@oOO@XoOX.              ",
"            ooXO@o+@OOOOOO+OOOOOOOOO@@OOO+OOOOOO+OOO+OOOOOOOOO@+o@OXoo             ",
"           .XOXO@@o@@OOOOOOOO+O@OOOO+OOOOOOOOO@@OOOO+@OOOOOOO@@o@@oXOX.            ",
"          ooX@OXO@O+@O+@OOOO+@O@@OOOOOO+@@+OO@@+OOO+O@+OOO@+O@+O@OoO@Xoo           ",
"          oOo@@OOOOOOOO@@OOO@@OO+O+@+OOO@@@OO+OOOO@@O@@OO@@OOOOOOOO@@oOo           ",
"          XO@O@+O@@OOOO+@OO@@OOOOO@@+OOOO+@OOOO+O@@OO+@OO@+OOOO@@O+@O@OX           ",
"         ..XO@@@O+@@OOOO+OO+OOOOO@@+OOOOOOOOOOO++OO+OO+OO+OOOO@@+O@@@OX..          ",
"        .oooXOOOOOO+OOOOOOOOOOOOO++OOOOOOOOOOOO++O++OOOOOOOOOO+OOOOOOXooo.         ",
"       XoO@@@+O+OOOOOOOOOOOOOOOOOOOOOOOOOOOOOOOOOO+OOOOOOOOOOOOOOO+O+@@@OoX        ",
"       .XXO@@@O+@+OOOOOOOOOOOOOOOOOOOOOOOOOOOOOOOOOOOOOOOOOOOOOO+@+O@@@OXX.        ",
"        ..XOO++O@@OOOOOOOOOOOOOOOOOOOOOOOOOOOOOOOOOOOOOOOOOOOOOO@@O++OOo..         ",
"        ooOOOOOOO++OOOOOOOOOOOOOOOOOOOOOOOOOOOOOOOOOOOOOOOOOOOO++OOOOOOOoo         ",
"      XoO@@OO@@++OOOOOOOOOOOOOOOOOOOOOOOOOOOOOOOOOOOOOOOOOOOOOOOO++@@OO@@OoX       ",
"       XXO@@+O@@OOOOOOOOOOOOOOOOOOOOOOOOOOOOOOOOOOOOOOOOOOOOO@@+OO@@O+@@OXX        ",
"        .XOOOOOOOOOOOOOOOOOOOOOOOOOOOOOOOOOOOOOOOOOOOOOOOOOOOOOOOOOOOOOOo.         ",
"      .ooO@@+OOOOOOOOOOOOOOOOOOOOOOOOOOOOOOOOOOOOOOOOOOOOOOOOOOOOOOOO+@@Ooo.       ",
"      oO+@@+OOOO@+OOOOOOOOOOOOOOOOOOOOOOOOOOOOOOOOOOOOOOOOOOOOOO+@OOOO+@@+Oo       ",
"     ooooOOOOO+@@OOOOOOOOOOOOOOOOOOOOOOOOOOOOOOOOOOOOOOOOOOOOOOOO@@+OOOOOoooo      ",
"    XXXXXXoOO+@@OOOOOOOOOOOOOOOOOOOOOOOOOOOOOOOOOOOOOOOOOOOOOOOOOO@@+OOoXXXXXX     ",
"     .XOOOOOOOOOOOOOOOOOOOOOOOOOOOOOOOOOOOOOOOOOOOOOOOOOOOOOOOOOOOOOOOOOOOoX.      ",
"    ...XoO@@O@@OOOOOOOOOOOOOOOOOOOOOOOOOOOOOOOOOOOOOOOOOOOOOOOOOOOO@@O@@OoX...     ",
"   ..ooO+@@+OO@+OOOOOOOOOOOOOOOOOOOOOOOOOOOOOOOOOOOOOOOOOOOOOOOOOO+@OO+@@+Ooo..    ",
"  XooOOOOOOOOOOOO@+OOOOOOOOOOOOOOOOOOOOOOOOOOOOOOOOOOOOOOOOOOOO+@OOOOOOOOOOOOooX   ",
"   XO+@@@+OOOOO+@@+OOOOOOOOOOOOOOOOOOOOOOOOOOOOOOOOOOOOOOOOOOOO+@@+OOOOO+@@@+oX    ",
"   .XXO+@@+OOOO@@+OOOOOOOOOOOOOOOOOOOOOOOOOOOOOOOOOOOOOOOOOOOOOO+@@OOOO+@@+OXX.    ",
"    ..XXoOOO@+O++OOOOOOOOOOOOOOOOOOOOOOOOOOOOOOOOOOOOOOOOOOOOOOOO++O+@OOOOoX..     ",
"     XoOOOO@@OOOOOOOOOOOOOOOOOOOOOOOOOOOOOOOOOOOOOOOOOOOOOOOOOOOOOOOO@@OOOOoX      ",
"     .XXoO++OOOOOOOOOOOOOOOOOOOOOOOOOOOOOOOOOOOOOOOOOOOOOOOOOOOOOOOOOO++OoXX.      ",
"      ..XoOOOO+OOOOOOOOOOOOOOOOOOOOOOOOOOOOOOOOOOOOOOOOOOOOOOOOOOOO+OOOOoX..       ",
"      .ooOOOOO@@OOOOOOOOOOOOOOOOOOOOOOOOOOOOOOOOOOOOOOOOOOOOOOOOOO@@OOOOOoo.       ",
"    XooOOO@@+O@@+OOOOOOOOOOOOOOOOOOOOOOOOOOOOOOOOOOOOOOOOOOOOOOOO+@@O+@@OOOooX     ",
"     XO+@@@+OO+@@OOOOOOOOOOOOOOOOOOOOOOOOOOOOOOOOOOOOOOOOOOOOOOOO@@+OO+@@@+oX      ",
"     .XXO++OOOOOOOOOOOOOOOOOOOOOOOOOOOOOOOOOOOOOOOOOOOOOOOOOOOOOOOOOOOO++OXX.      ",
"      ..XoOOOOOOOOOOOOOOOOOOOOOOOOOOOOOOOOOOOOOOOOOOOOOOOOOOOOOOOOOOOOOOoX..       ",
"      ooOOOOOO@+OOOOOOOOOOOOOOOOOOOOOOOOOOOOOOOOOOOOOOOOOOOOOOOOOO+@OOOOOOoo       ",
"     oOOOOOOO@@OOOOOOOOOOOOOOOOOOOOOOOOOOOOOOOOOOOOOOOOOOOOOOOOOOOO@@OOOOOOOo      ",
"    oOO+@@@+O@+OOOOOOOOOOOOOOOOOOOOOOOOOOOOOOOOOOOOOOOOOOOOOOOOOOOO+@O+@@@+Ooo     ",
"   XXXXXoO@@+OOO++OOOOOOOOOOOOOOOOOOOOOOOOOOOOOOOOOOOOOOOOOOOOOOOOOOO+@@OoXXXXX    ",
"     ..oOOOOOOO@@OOOOOOOOOOOOOOOOOOOOOOOOOOOOOOOOOOOOOOOOOOOOOOO+@OOOOOOOOo..      ",
"      oXXXoOO+@@OOOOOOOOOOOOOOOOOOOOOOOOOOOOOOOOOOOOOOOOOOOOOOOOO@@OOOOoXXXo       ",
"     XO+@@+OOOOOOOOOOOOOOOOOOOOOOOOOOOOOOOOOOOOOOOOOOOOOOOOOOOOOOO@+OOOO+@+OX      ",
"      XoO@@+OOOOO+OOOOOOOOOOOOOOOOOOOOOOOOOOOOOOOOOOOOOOOOOOOOOOOOOO++O@@OoX       ",
"      .XoOOO@@+O@@OOOOOOOOOOOOOOOOOOOOOOOOOOOOOOOOOOOOOOOOOOOOOOO+@@@OOOOoX.       ",
"     XoOOO+@@+O@@+OOOOOOOOOOOOOOOOOOOOOOOOOOOOOOOOOOOOOOOOOOOOOO+@@+OOO@@+OoX      ",
"      XXXOOOOOO+OOOOOOOOOOOOOOOOOOOOOOOOOOOOOOOOOOOOOOOOOOOOOOOOOOOOO+@@OXXX       ",
"        .oO+@+OOOOOOOOOOOOOOOOOOOOOOOOOOOOOOOOOOOOOOOOOOOOOOOOOOOO+@@OOOo.         ",
"       oo+@@+OOOOOOOOOOOOOOOOOOOOOOOOOOOOOOOOOOOOOOOOOOOOOOOOOOOOOO+@@+OOoo        ",
"      XXOOOOO@@+OOOOOOOOOOOOOOOOOOOOOOOOOOOOOOOOOOOOOOOOOOOOOOOOOOOOOO+@@OXX       ",
"        XXO+@@OOO++OOOOOOOOOOOOOOOOOOOOOOOOOOOOOOOOOOOOOOOOOOOO++OOOO+@+XX         ",
"        ..oOO++O@@OOOOOOOOOOOOOOOOOOOOOOOOOOOOOOOOOOOOOOOOOOOOOO@@O++OOo..         ",
"       .ooO@@@O+@+OOOOOOOOOOOOOOOOOOOOOOOOOOOOOOOOOOOOOOOOOOOOOO+@+O@@@Ooo.        ",
"       XXO@@@+O+OOOOOOOOOOOOOOOOOOOOOOOOOOOOOOOOOOOOOOOOOOOOOOOOOO+O+@@@OXX        ",
"        .XXXoOOOOOO+OOOOOOOOOOOOO++OOOOOOOOOOOOOOOOOOOOOOOOOOO+OOOOOOoXXX.         ",
"         ..oO@@@O+@@OOOO+OO+OOOOO@@+OOOOOOOOOOOOO+OOOO+OOO+OOO@@+O@@@Oo..          ",
"          oO@O@+O@@OOOO+@OO@@OOOOO@@+OOOO+@OOOOOO@@OO+@OO+@OOOO@@O+@O@Oo           ",
"          ooX@@OOOOOOOO@@OOO@@OO+O+@+OOO@@@OO+OOOO@@O@@OO@@OOOOOOOO@@XOo           ",
"          XXo@OoO@O+@O+@OOOO+@O@@OOOOOO+@@+OO@@+OOO+O@+OO@+OO@+O@OoO@oXX           ",
"           .ooXO@@o@@OOOOOOOO+O@OOOO+OOOOOOOOO@@OOOOO@OOOOOOO@@o@@OXOo.            ",
"            XXoO@X+@OOO@OO+OOOOOOOOO@@OOO+OOOOOO+OOOOOOOOOO+oO@+X@OoXX             ",
"             .ooXo@OOo@@OO@+OOO@+OOOO@+OO@+OOOO+@OO+OOO@Oo+@XOo@XXOo.              ",
"             .oX.oOoOX@OXO@@OoO@@OO+OO+oO@@+oOO@@Oo+@O@@oX@@XOXOX.Xo.              ",
"             XX  XXooXOXXXO@OXOo@O+@OOOXOO@+XoO@OOXO@O@OXX@OXoXXX  XX              ",
"                  .oX.XX..X+oXOX+O@@oOoXoO@OXoO@oOXOOo+X.XOX.XX.                   ",
"                   X. X   XooXoXoO@+XoX.Xo+X.Xo+oXXOoXoX .XX .X                    ",
"                          .XoXX.XO@OXoX..XOX.XoOX.XoX.XX  X                        ",
"                            XX..Xo+X.X.  XX.  XoX. X  X                            ",
"                             X ..XoX.    X     XX                                  ",
"                                .XX.            X                                  ",
"                                 X                                                 ",
"                                                                                   "
};
