/* XPM */
static char *c65f55e3fb6d4ea4dd03827cd27d8057SJ5DS0P1HNVu6xtT[] = {
/* columns rows colors chars-per-pixel */
"48 40 112 2 ",
"   c None",
".  c #321E32",
"X  c #361D32",
"o  c #372134",
"O  c #3C2034",
"+  c #430D25",
"@  c #470E27",
"#  c #471F2E",
"$  c #53112E",
"%  c #5A1330",
"&  c #611436",
"*  c #631436",
"=  c #6B1837",
"-  c #47202D",
";  c #47202E",
":  c #46212E",
">  c #49202F",
",  c #49222F",
"<  c #4A222F",
"1  c #4A2330",
"2  c #4F2732",
"3  c #562C35",
"4  c #592E36",
"5  c #5B2F37",
"6  c #502D3D",
"7  c #55303F",
"8  c #5B3038",
"9  c #59313A",
"0  c #5D343A",
"q  c #5C343C",
"w  c #60383F",
"e  c #61383F",
"r  c #643A3E",
"t  c #563140",
"y  c #563240",
"u  c #583240",
"i  c #593241",
"p  c #5E3140",
"a  c #5B3441",
"s  c #682343",
"d  c #633541",
"f  c #633942",
"g  c #6B3C45",
"h  c #754C4D",
"j  c #784E4F",
"k  c #7F534E",
"l  c #872239",
"z  c #A62D3C",
"x  c #A82E3B",
"c  c #A82F3C",
"v  c #A92F3C",
"b  c #8D3247",
"n  c #8E3B50",
"m  c #AD3F4B",
"M  c #854D49",
"N  c #874E49",
"B  c #8A504A",
"V  c #8B514A",
"C  c #8C514A",
"Z  c #815755",
"A  c #865850",
"S  c #825855",
"D  c #8C5C52",
"F  c #8D5C52",
"G  c #995D51",
"H  c #945F59",
"J  c #946155",
"K  c #996153",
"L  c #9A6153",
"P  c #A66B58",
"I  c #A76C59",
"U  c #AA6F5A",
"Y  c #AA6E5B",
"T  c #AF775D",
"R  c #B3765E",
"E  c #B5765F",
"W  c #B4775F",
"Q  c #B5775F",
"!  c #B3785C",
"~  c #B6785F",
"^  c #B9795F",
"/  c #B87B5F",
"(  c #B55C65",
")  c #89667C",
"_  c #B47160",
"`  c #B97866",
"'  c #AA7E71",
"]  c #C37F52",
"[  c #C37E58",
"{  c #D48E71",
"}  c #DA9273",
"|  c #DF9A7B",
" . c #A48494",
".. c #ACACB9",
"X. c #B6AAB5",
"o. c #D8A08D",
"O. c #D9A390",
"+. c #E9A68E",
"@. c #E9A78E",
"#. c #E2B59F",
"$. c #EAC6AE",
"%. c #FECEA9",
"&. c #FFCFAA",
"*. c #FFD0AA",
"=. c #C6CBD1",
"-. c #FFF5DD",
";. c #FFF6DD",
":. c #FFF5DE",
">. c #FFF6DE",
",. c #DDE5E5",
"<. c #FCF6F1",
"1. c #FFFDFA",
/* pixels */
"                                                                                                ",
"                                                                                                ",
"                                                                                                ",
"                                                                                                ",
"                                                                                                ",
"                                                                                                ",
"                                                                                                ",
"                                                                                                ",
"                                  k A W W ~ R R ~ W W W W W                                     ",
"                              ; > 0 r J J J J H J J J J J J ~ W                                 ",
"                              ; ; ; 2 k k k k k k k k k k k W ~                                 ",
"                          # ; ; ; ; 2 k k k k k k k k k k M F F                                 ",
"                          ; ; ; ; ; 2 k k k k k k k k k k k k k                                 ",
"                          ; ; ; ; ; 5 { { { { { { { { {                                         ",
"                          ; ; ; ; > 8 } } } } } } } } }                                         ",
"                          ; ; ; ; > q &.%.%.%.&.&.&.&.*.                                        ",
"                          ; ; ; ; ; w *.&.&.&.&.&.&.*.&.                                        ",
"                          ; ; ; , ~ P ; h &.&.&.&.&.8 ;         W ~                             ",
"                          ; ; ; > ~ P 1 j &.&.&.&.&.q 1         ~ W                             ",
"                              > , } | *.&.&.&.&.&.&.&.&.        W W                             ",
"                              3 4 } | *.*.&.&.&.&.&.&.&.        W W     1.<.                    ",
"                      &.*.    W ~ } | *.&.&.&.&.&.&.&.&.        W W       ] [ ~ ~ ^ ^           ",
"                      +.@.    G G _ ` o.o.o.#.$.$.$.O.o.        L L     1.1.                    ",
"                      x x     + + + @ & & & ) ......s &         ; ;                             ",
"                          & & $ $ $ % l n  .X.=.=.=.b l z c c x ' '                             ",
"                          & & & & & = c ( ,.,.,.,.,.m x x x x c &.*.                            ",
"                              & & & = c ( ,.,.,.,.,.m c         Z S                             ",
"              :.              & & & = c ( ,.,.,.,.,.m c         > >                             ",
"              :.:.            X X X X d g J H H H H d p         U U                             ",
"                      :.:.    . . . X t f C C C C C a t         ~ W                             ",
"                        :.    t t t t           i i M B         W W                             ",
"                  :.          t t t t           t t N C         W W                             ",
"                  :.          C C               t t             ~ ~                             ",
"                              B C               6 t             ~ R                             ",
"                                                                                                ",
"                                                                                                ",
"                                                                                                ",
"                                                                                                ",
"                                                                                                ",
"                                                                                                "
};
