/* XPM */
static char *result[] = {
/* columns rows colors chars-per-pixel */
"26 64 80 1 ",
"  c black",
". c #0E1D2C",
"X c #0C2436",
"o c #0B263A",
"O c #0A283F",
"+ c #0A2B42",
"@ c #0A2F48",
"# c #0B314C",
"$ c #0C3552",
"% c #0F3855",
"& c #0C3B5C",
"* c #123D5C",
"= c #0C3E60",
"- c #0D4164",
"; c #0D476D",
": c #0C486F",
"> c #124162",
", c #0D4A71",
"< c #114D75",
"1 c #114F79",
"2 c #165077",
"3 c #185077",
"4 c #13527D",
"5 c #19547C",
"6 c #165682",
"7 c #175885",
"8 c #185986",
"9 c #175C89",
"0 c #1A5D8A",
"q c #1C618E",
"w c #1D6393",
"e c #1E6698",
"r c #21628F",
"t c #236592",
"y c #276995",
"u c #286A96",
"i c #216A9C",
"p c #2A6D99",
"a c #30739E",
"s c #226EA1",
"d c #2472A6",
"f c #2873A7",
"g c #2676AC",
"h c #2B77AA",
"j c #2778AE",
"k c #2A79AF",
"l c #3274A0",
"z c #3679A5",
"x c #387CA8",
"c c #2A7CB4",
"v c #3B80AC",
"b c #2D82BD",
"n c #3185BE",
"m c #3789BF",
"M c #4487B1",
"N c #478AB5",
"B c #498CB6",
"V c #4890BF",
"C c #5093BD",
"Z c #2E85C1",
"A c #3087C2",
"S c #3289C5",
"D c #398BC2",
"F c #338DCB",
"G c #3690CD",
"H c #3C93CD",
"J c #3591D0",
"K c #4792C1",
"L c #4C95C2",
"P c #4296CD",
"I c #4598CF",
"U c #4B9BCF",
"Y c #539ECE",
"T c #599EC8",
"R c #56A0CF",
"E c #5DA3CF",
"W c #53A0D0",
"Q c #58A2D0",
"! c #62A6CF",
"~ c None",
/* pixels */
"~~~~~~~~~!!!!!!!~~~~~~~~~~",
"~~~~~~~~!UUUUIUUR~~~~~~~~~",
"~~~~~~~REDbZZZZFUE~~~~~~~~",
"~~~~~~GIEu9000eSFI!~~~~~~~",
"~~~~~GUVl087778iihIR~~~~~~",
"~~~~~GQB886666678wFY!~~~~~",
"~~~~~HRN881,,,,88iFR!~~~~~",
"~~~~HYxt81,,;,,<68iDU!~~~~",
"~~~FP!p88,,,,7q,668cI!~~~~",
"~~~GPTp87<,,,gZ6688cIQ~~~~",
"~~FWVu087<;1cFFbe88qfPQ~~~",
"~~FYC8861,7etegFcs87sGQ!~~",
"~~FWC084,:wk$$4bFb08iGE!~~",
"~~JRC085::-$@@$1cc88sGE!~~",
"~~FRC084,,&+++@;jSjwiHQ!~~",
"~~HLM9w8;,&+++#;sAFetAYQ~~",
"~~!z80cj,:&+++@:<qFe8qAU!~",
"~P!l78bc,,&+++@;:0Si80ZU!~",
"JHQl0eji:,$+++@;:0Fi80ZU!~",
"JHEleS0,,:&+.X@;:9Ze60ZU!~",
"FHEleS9,:$@+.X@@=18880ZU!~",
"FH!leF9,:@+X.Xo+=1w080ZU!~",
"FHEleS9,;@X....+=9Ze80ZU!~",
"FH!feS9,;@X....+=16880ZI!~",
"JHEleF9:;#X....+=,,680ZUQ~",
"FHEleS9,;#X....+=,,480ZU!~",
"JHEleS8,:#X....+=,,680ZU!~",
"FPEleFcw;@X....+=,,480ZU!~",
"FHEliFJj;#X....+=,,679ZU!~",
"JHEltFJj:#X....+=,,699ZU!~",
"FHEl0sAj;@+X..o+&7jw80ZI!~",
"FHEz68dd91*+.X@$=9Fe80ZU!~",
"FHEl78<wSGrO.X#;,0Si70ZU!~",
"FPEl78,19St+OO#:,0Si70ZU!~",
"~P!l784<,s5+++#;,9Si70ZU!~",
"~~Ez0884,,&+++#:,wAe9qDU!~",
"~~HUB884,,&+++#:dcw9iDYE~~",
"~~FWC085,,&+++%eZb97iGQ!~~",
"~~FWC074,,&@++>bZc87sGE!~~",
"~~FWC994:::-@&:11187iGQ!~~",
"~~FRL0864,qi#&::1688sJQ!~~",
"~~FWLp087<wc326,488wfPQ~~~",
"~~~JITp87,,6bFb2488cI!~~~~",
"~~~FP!p67,:,896:688cI!~~~~",
"~~~~PYxp72,,:::<60iDU!~~~~",
"~~~~~FQB884,,,<88tFR!~~~~~",
"~~~~~GQB788466688iFR!~~~~~",
"~~~~~GUKzq88880sskUQ~~~~~~",
"~~~~~~FIRp00qqiSHIE~~~~~~~",
"~~~~~~~~HSSSAZZJU!~~~~~~~~",
"~~~~~~~~FUUUUUUUR~~~~~~~~~",
"~~~~~~~~~!!!!!!!~~~~~~~~~~",
"~~~~~~~~~~~~~~~~~~~~~~~~~~",
"~~~~~~~~~~~~~~~~~~~~~~~~~~",
"~~~~~~~~~~~~~~~~~~~~~~~~~~",
"~~~~~~~~~~~~~~~~~~~~~~~~~~",
"~~~~~~~~~~~~~~~~~~~~~~~~~~",
"~~~~~~~~~~~~~~~~~~~~~~~~~~",
"~~~~~~~~~~~~~~~~~~~~~~~~~~",
"~~~~~~~~~~~~~~~~~~~~~~~~~~",
"~~~~~~~~~~~~~~~~~~~~~~~~~~",
"~~~~~~~~~~~~~~~~~~~~~~~~~~",
"~~~~~~~~         ~~~~~~~~~",
"~~~~~~~~~       ~~~~~~~~~~"
};
