/* XPM */
static char *result[] = {
/* columns rows colors chars-per-pixel */
"26 64 83 1 ",
"  c black",
". c #0E1D2B",
"X c #0D1F30",
"o c #0D2132",
"O c #0B273D",
"+ c #09283F",
"@ c #0A2B44",
"# c #0B2F48",
"$ c #0B324D",
"% c #0B3654",
"& c #0B3857",
"* c #0C3D5F",
"= c #103956",
"- c #123E5E",
"; c #0C3E60",
": c #0C4266",
"> c #0D4569",
", c #0D486F",
"< c #164465",
"1 c #144669",
"2 c #0D4A71",
"3 c #104D76",
"4 c #184C71",
"5 c #114F79",
"6 c #12527C",
"7 c #1B557D",
"8 c #165682",
"9 c #175885",
"0 c #185986",
"q c #175B88",
"w c #1A5D8A",
"e c #205F8B",
"r c #1C608F",
"t c #1D6494",
"y c #1F6799",
"u c #1F6A9B",
"i c #226492",
"p c #276995",
"a c #296B97",
"s c #216A9C",
"d c #2D6F9A",
"f c #2E709C",
"g c #236EA2",
"h c #2471A5",
"j c #2674AA",
"k c #2A76AA",
"l c #2778AF",
"z c #2B79AE",
"x c #387AA5",
"c c #3B7EA9",
"v c #2A7CB4",
"b c #2B7EB8",
"n c #3C81AE",
"m c #2D82BB",
"M c #3C84B2",
"N c #3184BC",
"B c #3C8BBF",
"V c #4285AF",
"C c #4386B0",
"Z c #478CB8",
"A c #4C8FB9",
"S c #4690BF",
"D c #4C90BA",
"F c #2F85C0",
"G c #3087C2",
"H c #3189C5",
"J c #348ECC",
"K c #3690CD",
"L c #3C94CE",
"P c #4691C0",
"I c #4396CD",
"U c #4498CF",
"Y c #4B9BCE",
"T c #569BC4",
"R c #599DC7",
"E c #509DCE",
"W c #5A9FC8",
"Q c #56A1CF",
"! c #5CA3CE",
"~ c #54A0D0",
"^ c #5BA4D0",
"/ c #62A6CF",
"( c None",
/* pixels */
"((((((((((((((((((((((((((",
"((((((((((//////((((((((((",
"(((((((((!E!!!!Q!(((((((((",
"((((((((/YKKJKJJY/((((((((",
"(((((((L/CisyssGLY!(((((((",
"((((((LIAg8090qjvmY!((((((",
"(((((JYRi0qq80000rH~/(((((",
"(((((JU!i08232388tHE/(((((",
"((((KUPcw8522,256whH!/((((",
"((((K^V805,2,22,600jI!((((",
"((((K^V0052222,2500lL/((((",
"(((IEna00522yt2>690tzUQ(((",
"((JI/p80853qbbwq9899tJQ/((",
"((JI!a0822qHJHHJh289tHQ/((",
"((JI!a882tNJw<4Fh,90tJQ/((",
"((KL!a90tbHs-@#ygt00tJQ/((",
"((KURa9wHJj$@@@:sHr9tGE!((",
"((^Pp09tGh2#@@@:sHr9qrNY/(",
"((^A0078Gu:@@@#:qy8809mU/(",
"(K~Aqq8qbt:@++@:22,609mU/(",
"(J~D00gG82:@oo@:222690mY/(",
"(K~D00jH6*%@oo@$*2260qbI/(",
"(K~D00sj6%@O.oO@&2269qbU/(",
"(J~A0q822%O....O&22809bU/(",
"(J~Awbs,2&O....O&6ly8qbU/(",
"(K~AwGj,,&O....o&6hjgqbU/(",
"(J~Awbg,2&O....O&,,jFwbU/(",
"(K~Aqw822&O....O&22hFwbU/(",
"(K~Dq0ts5&O....O&2,jmwbU/(",
"(K~D00jH6&O....O&22jFwbI/(",
"(K~Aq0hG6%O....O&,2hFwmU/(",
"(K~A00jG6%@O..O@&2,jFwbU/(",
"(J~A00jHy,$@oo@$;>2jFwbU/(",
"(K~Aq0gJJu>@oo$>222jFwbI/(",
"(J~A000wHHd#O<z622>jFwbU/(",
"(K^Aq066gmNe0ei522tjjwbI/(",
"((^Diq092gHKGi#:26Gj0rNY/(",
"((LUTp0922wJ7$@>26GhtNE!((",
"((JI!a982>29=@@:qjjttJQ/((",
"((JI!a9qq6:$@@%:tbq8tJQ/((",
"((KL!a0rFy2,$%,22280tJ~/((",
"((KI!i0qsjj2$<v63809tHQ/((",
"(((IEcp08sjt7wj6699tkI!(((",
"((((KQC0058GHj32699lI^((((",
"((((K^C8q538862,5qqjL/((((",
"((((KYPxw63,>,,58wgBE!((((",
"(((((JYWi08322388rHE/(((((",
"(((((KYRi80q8q800rH~/(((((",
"((((((IUZd8080qjvbY!((((((",
"(((((((K~MyistsGKY!(((((((",
"((((((((KJJJJJJJY^((((((((",
"(((((((((~QQ!~~W!(((((((((",
"((((((((((//////((((((((((",
"((((((((((((((((((((((((((",
"((((((((((((((((((((((((((",
"((((((((((((((((((((((((((",
"((((((((((((((((((((((((((",
"((((((((((((((((((((((((((",
"((((((((((((((((((((((((((",
"((((((((((((((((((((((((((",
"((((((((((      ((((((((((",
"((((((              ((((((",
"((((((              ((((((",
"((((((((((      (((((((((("
};
