/* XPM */
static char *_8c552454b9b4044db45cc184e8f2a6ewm5kR8ferJ5djwCi[] = {
/* columns rows colors chars-per-pixel */
"26 64 133 2 ",
"   c None",
".  c black",
"X  c #0E1C2B",
"o  c #0D2133",
"O  c #0B273C",
"+  c #0B283E",
"@  c #102232",
"#  c #112638",
"$  c #122A3E",
"%  c #0A2C44",
"&  c #0B2F48",
"*  c #0C324C",
"=  c #0C3654",
"-  c #0B3857",
";  c #0C3B5B",
":  c #163750",
">  c #143954",
",  c #0C3F61",
"<  c #1A415E",
"1  c #0C4266",
"2  c #0C456A",
"3  c #0D486F",
"4  c #134060",
"5  c #1C4463",
"6  c #16476A",
"7  c #174B6F",
"8  c #0D4A71",
"9  c #124D75",
"0  c #184D72",
"q  c #114F78",
"w  c #13527C",
"e  c #1C557C",
"r  c #165683",
"t  c #175885",
"y  c #185986",
"u  c #175C89",
"i  c #1A5D8B",
"p  c #1E608D",
"a  c #1D6393",
"s  c #1E6798",
"d  c #1F699B",
"f  c #21628E",
"g  c #226390",
"h  c #296B97",
"j  c #236B9C",
"k  c #2C6E9A",
"l  c #2D709C",
"z  c #226EA2",
"x  c #2472A6",
"c  c #2574A9",
"v  c #2876AB",
"b  c #2778AF",
"n  c #2879AF",
"m  c #3174A0",
"M  c #387AA6",
"N  c #3A7EA9",
"B  c #2A7CB3",
"V  c #2B7EB8",
"C  c #2D82BC",
"Z  c #4184AF",
"A  c #4386B0",
"S  c #4489B4",
"D  c #4C8FB9",
"F  c #4C90B9",
"G  c #5094BE",
"H  c #2F85C0",
"J  c #3087C3",
"K  c #3189C4",
"L  c #3A8DC6",
"P  c #348ECC",
"I  c #398FC9",
"U  c #3790CD",
"Y  c #3591CF",
"T  c #3790CD",
"R  c #3A92CD",
"E  c #3B93CD",
"W  c #3C93CD",
"Q  c #3D93CC",
"!  c #3F96D0",
"~  c #408FC3",
"^  c #4390C1",
"/  c #4593C5",
"(  c #4D95C2",
")  c #4893C4",
"_  c #4195CD",
"`  c #4296CE",
"'  c #4297CE",
"]  c #4297CF",
"[  c #4296CE",
"{  c #4897CA",
"}  c #4498CF",
"|  c #4799CE",
" . c #4598CF",
".. c #4A98CA",
"X. c #499ACF",
"o. c #4B9BCF",
"O. c #4E9CCE",
"+. c #4E9DCF",
"@. c #4F9DCF",
"#. c #4A9ACE",
"$. c #5399C4",
"%. c #5A9EC7",
"&. c #5A9EC7",
"*. c #539CC8",
"=. c #519ECF",
"-. c #549FCD",
";. c #529ECD",
":. c #54A0CF",
">. c #55A0CF",
",. c #56A0CF",
"<. c #59A0CC",
"1. c #5AA2CE",
"2. c #5CA2CC",
"3. c #5DA2CC",
"4. c #5EA3CD",
"5. c #5CA4CF",
"6. c #5FA5CF",
"7. c #5DA3CD",
"8. c #54A0D0",
"9. c #55A1D0",
"0. c #56A1D0",
"q. c #54A0D0",
"w. c #5AA3D1",
"e. c #5AA3D0",
"r. c #60A5CF",
"t. c #60A6CF",
"y. c #61A6CF",
"u. c #62A6CF",
"i. c #62A7CF",
"p. c #63A7CF",
"a. c #61A6CF",
"s. c #60A6D0",
"d. c #61A7D1",
/* pixels */
"                                                    ",
"                                                    ",
"                                                    ",
"                  s.t.t.t.t.t.t.t.                  ",
"                s.+.] ] ] ] ] ] +.s.                ",
"                s.^ B B B B V K ] 0.                ",
"              W <.M t y y y i C K I 2.              ",
"          P | *.l p y y t t t a a j I =.p.          ",
"          P #.&.g t r w q w w t y p K +.s.          ",
"          R { G f t r 8 q w 8 w y i C { w.          ",
"        U 0.S f y q 8 8 c c 8 8 w y y B ] w.        ",
"        U w.Z t y q w c z i 8 8 q y y B ] s.        ",
"      E ] ( M y t q r B r 1 3 3 q y y z C -.        ",
"    P ] <.k y y u q 8 8 = = 8 8 w y t y h P ,.p.    ",
"    P ] 2.h t i B a 3 8 * 6 B C d q t y g P ,.t.    ",
"    P ] <.h a c P d 3 ; 0 i j c z a y y a P ,.p.    ",
"    P ] 2.h x P P s 1 & j j & 1 a C i t a P ,.p.    ",
"    P ] 2.h c K u 8 1 % = = & 1 q r y y a P ,.p.    ",
"    o.) N f z K w 8 1 % % % & 1 8 8 t t i c ^ 8.    ",
"    s.D y t c H w 8 1 % % % % 1 3 8 r t y t V ] t.  ",
"  P 0.D y y c K w 8 1 % % & & 1 8 8 8 w y i V } p.  ",
"  Y 8.D i v H J w 8 1 % o o & d B c 8 w t y C } t.  ",
"  Y 8.D i H Y K w 1 ; & o O 7 k B B p y y y B ] t.  ",
"  P 0.D i C P H w = % % X 5 C < ; w J x y y C } p.  ",
"  P q.D y a B J w - + o X # : % - r K x t y V } s.  ",
"  Y 0.D y t x J w - O X X X X O - 8 z x j i V ] s.  ",
"  P q.D y y z C t ; O X X X X O - 8 8 x H i V } s.  ",
"  Y 0.F y t r t C e O X X X X O - 8 8 c H i V } t.  ",
"  P q.D y y w w J n e o X X X O - 8 8 x H u V } t.  ",
"  Y 0.F y y w w B C k o X X X O - 8 8 x H i V ] p.  ",
"  Y q.F i y w 8 8 4 % X X X X O - 3 8 x H i C ] t.  ",
"  P q.D y y w 8 8 - O X X X X o - 8 8 x H i V ] t.  ",
"  Y 8.F y y w 3 3 - + o X $ < * - 8 8 x H i V } t.  ",
"  U 8.F y y w 8 8 - % % o < J 4 - 8 8 x H i V } t.  ",
"  P 8.F i y w 8 8 2 ; & X 5 K w 1 8 8 t a y V } t.  ",
"  U ,.F y y w 8 8 8 1 & o > f j y 8 8 p z i V } p.  ",
"  P 0.F y y w 8 3 8 1 & % % * B x 8 8 x V i V } t.  ",
"    d.F y y y r 8 8 1 & % + * B x 8 t u p i V ] t.  ",
"    o./ Z g y r 8 3 1 % % % * C x 8 t t p c / -.    ",
"    P ] 6.h t t 8 3 1 % % * 6 c d 8 t t g P q.p.    ",
"    P ] -.h y r 8 8 1 & % 9 H t 8 8 r y a P q.s.    ",
"    P ] r.h y i b a 3 , % 7 P t 8 8 r y a P -.s.    ",
"    P ] 2.k t y B p q a e i c w 8 q y y a P <.d.    ",
"    Y ] &.k y y y q t K P x 8 8 q y y i j I <.d.    ",
"        ] $.N y y q y K d q 3 3 q y y x L -.        ",
"        Y w.A t y q w z r 3 3 3 q y y n W s.        ",
"        P 8.S g y q 8 3 3 3 3 9 w y a B } s.        ",
"          ! { $.f t r 8 8 3 9 r y i C #.s.          ",
"          Y o.&.a y y w w w e t y p K +.t.          ",
"          P } *.m f y y y y y a g j R =.t.          ",
"              E -.M y y u y i H P R 2.              ",
"                _ K C C C C C K ] w.                ",
"                P ] } #.} } o.} =.p.                ",
"                  t.s.t.s.s.s.s.t.                  ",
"                                                    ",
"                                                    ",
"                                                    ",
"                                                    ",
"                                                    ",
"                                                    ",
"                  . . . . . . . .                   ",
"          . . . . . . . . . . . . . . . .           ",
"          . . . . . . . . . . . . . . . .           ",
"                  . . . . . . . .                   "
};
