/* XPM */
static char *fa8cc4b6f8f848cbdb7bcf1f109489064aPOXPB6l395dfQ4[] = {
/* columns rows colors chars-per-pixel */
"26 64 130 2 ",
"   c None",
".  c black",
"X  c #0E1D2B",
"o  c #0C2335",
"O  c #0C2539",
"+  c #0A283F",
"@  c #0A2B42",
"#  c #0A2F49",
"$  c #0B324D",
"%  c #0D3552",
"&  c #0C3D5E",
"*  c #0D3F61",
"=  c #0E4264",
"-  c #0D476C",
";  c #0D486F",
":  c #154668",
">  c #0E4A72",
",  c #104E76",
"<  c #124F79",
"1  c #13527C",
"2  c #1B557C",
"3  c #165682",
"4  c #175885",
"5  c #185986",
"6  c #175B88",
"7  c #1A5D8C",
"8  c #1E608D",
"9  c #1D6494",
"0  c #1F6798",
"q  c #1F699B",
"w  c #21618E",
"e  c #236593",
"r  c #20699B",
"t  c #226DA1",
"y  c #2471A5",
"u  c #2E77A7",
"i  c #2675AB",
"p  c #2876AB",
"a  c #2778AE",
"s  c #3476A1",
"d  c #3679A5",
"f  c #327AA9",
"g  c #397DA9",
"h  c #2A7CB4",
"j  c #2C7FB8",
"k  c #317FB3",
"l  c #3E81AC",
"z  c #2C81BA",
"x  c #3585BB",
"c  c #4186B2",
"v  c #4689B4",
"b  c #488CB7",
"n  c #448BB9",
"m  c #5194BE",
"M  c #2F87C3",
"N  c #3187C2",
"B  c #328AC6",
"V  c #378BC4",
"C  c #368DC7",
"Z  c #328AC5",
"A  c #328BC8",
"S  c #338BC8",
"D  c #328CC9",
"F  c #328DCA",
"G  c #338DCA",
"H  c #338DCB",
"J  c #358FCB",
"K  c #368FCB",
"L  c #338ECD",
"P  c #338FCD",
"I  c #348FCD",
"U  c #368FCC",
"Y  c #348ECB",
"T  c #3790CD",
"R  c #3690CD",
"E  c #3891CD",
"W  c #3992CD",
"Q  c #3A92CD",
"!  c #3B93CD",
"~  c #3992CE",
"^  c #3D95CF",
"/  c #3A92CD",
"(  c #4392C5",
")  c #4190C4",
"_  c #4695C8",
"`  c #4295CC",
"'  c #4196CE",
"]  c #4397CE",
"[  c #4596CB",
"{  c #4598CE",
"}  c #4799CF",
"|  c #4799CF",
" . c #4C98C8",
".. c #4A99CC",
"X. c #499ACE",
"o. c #4A9BCF",
"O. c #4B9BCF",
"+. c #4D9CCF",
"@. c #4F9DCF",
"#. c #4C9BCE",
"$. c #579BC4",
"%. c #579BC5",
"&. c #579BC4",
"*. c #519ECE",
"=. c #529ECE",
"-. c #529FCF",
";. c #529ECF",
":. c #529FD0",
">. c #57A1CF",
",. c #56A1CF",
"<. c #58A1CE",
"1. c #58A1CF",
"2. c #58A2CF",
"3. c #59A2CF",
"4. c #5BA3CF",
"5. c #5CA3CF",
"6. c #5DA4CF",
"7. c #5EA4CF",
"8. c #5FA5CF",
"9. c #5CA3CF",
"0. c #52A0D0",
"q. c #5BA4D0",
"w. c #5FA5D0",
"e. c #5CA4D0",
"r. c #60A5CF",
"t. c #61A6CF",
"y. c #62A6CF",
"u. c #62A7CF",
"i. c #63A7CF",
"p. c #62A6CF",
/* pixels */
"                                                    ",
"                    t.t.t.t.t.i.                    ",
"                  3.3.3.3.3.3.3.5.                  ",
"                t.' K K K K I T -.t.                ",
"              ' r.d r r r r t K ^ X.t.              ",
"            ' _ b e 3 4 4 3 7 a h x =.5.            ",
"          I -.m 7 5 4 4 4 4 4 5 5 r K >.r.          ",
"          I 0.m 7 5 1 > , , < 4 4 r I q.i.          ",
"        ! X.n s 5 1 < ; > ; , < 3 8 i ` :.          ",
"      P ! 8.s 4 4 , ; ; ; > ; ; 1 4 5 j O.r.        ",
"      P ! 8.s 5 5 , > ; ; > ; > 3 4 5 j } r.        ",
"    P {  .g e 5 5 , - , t 7 - ; 3 5 5 r k X.e.      ",
"    P X.$.8 4 5 3 > < 7 B i 6 6 4 4 4 4 t I q.      ",
"    P +.$.8 5 1 > > 0 D D D D F 9 > 4 4 t ! q.      ",
"    P O.%.8 4 3 > t M Z 2 : 2 D 9 > 4 4 t ! e.      ",
"    P O.%.8 4 7 9 M x e % @ % t t 8 5 4 t ! e.      ",
"    ! X.m 7 5 r F D 0 @ @ @ $ - i z 5 5 r C 3.8.    ",
"    q.c e 5 3 r D 9 = @ @ @ $ - a z 6 5 7 r V @.i.  ",
"  ! e.l 4 5 1 9 D 7 & @ @ @ $ - 9 0 1 5 5 7 M @.i.  ",
"  ! q.l 4 5 1 9 z 3 & @ @ @ $ - ; ; ; 1 5 7 M #.r.  ",
"  R q.l 4 5 h h < > & @ X o # - > ; > 1 5 7 M +.i.  ",
"  ! q.l 4 4 h j > & $ @ X o # % = > > 3 5 7 M +.i.  ",
"  ! q.l 5 5 y y > $ @ O X o + @ & > > 4 6 7 M +.r.  ",
"  R q.l 5 5 < , ; $ O X X X X @ & > > 4 5 8 M +.i.  ",
"  R q.l 7 j 7 ; ; % o X X X X + & 6 h 9 4 7 M +.r.  ",
"  ! q.l 9 D 9 ; ; % o X X X X @ & 3 i y 0 7 M +.r.  ",
"  ! q.l 7 M 9 ; ; $ o X X X X @ * > > z h 7 M +.i.  ",
"  R q.l 6 7 < ; ; % O X X X X @ & > > z j 7 M +.r.  ",
"  ! q.l 4 6 r 0 ; $ O X X X X @ * > > z h 7 M +.i.  ",
"  R q.l 4 4 h j > % o X X X X @ & > > z h 7 M O.i.  ",
"  R q.l 4 5 h j > $ O X X X X @ & ; > z h 7 D O.r.  ",
"  ! q.l 4 4 j j > $ @ o X X + @ * > > z h 7 M O.i.  ",
"  R e.l 4 5 j z 8 * $ + X o @ $ = > , j j 7 M +.t.  ",
"  ! q.l 4 5 h F K 8 * + o + % - ; > > z h 7 M +.t.  ",
"  ! e.l 4 5 4 0 F M w + O 2 p , > - > j h 7 M +.i.  ",
"  ! r.g 4 5 1 4 y N k 5 5 w 8 > > 1 r i t 7 N #.t.  ",
"    e.c w 5 5 1 > a F R N 2 @ - ; 7 D 0 5 e B @.i.  ",
"    ! X.m 8 5 4 > > q B : $ $ ; ; 7 D 0 r B >.e.    ",
"    P X.&.w 4 4 - > , 2 $ @ # - 9 i t 7 t ! 5.      ",
"    I O.$.7 4 6 4 , * # @ # % ; t i 4 4 t ! 5.      ",
"    P O.%.w 5 0 M 7 > - # & > > > 1 5 4 t ! q.      ",
"    P +.%.7 4 7 r h q - # 1 i < < 4 5 4 t T q.      ",
"    P {  .d w 5 6 t t 9 2 e y > 1 6 5 q k { e.      ",
"      P ^ 8.s 4 4 > 9 D N r - > 1 4 5 z { t.        ",
"      P ! 8.s 4 5 , , 3 4 , > > 1 4 5 z X.t.        ",
"        ! X.n s 5 1 , : ; - , < 4 8 i ) -.          ",
"          P -.m 5 5 1 , > > , 4 4 r I >.t.          ",
"          F -.m 7 4 4 3 4 4 4 4 3 r K 3.i.          ",
"            ' _ v e 4 4 3 4 7 i h x #.3.            ",
"              ' >.u 0 0 e 0 t H ^ X.t.              ",
"                R K K K K K I I -.t.                ",
"                  =.>.>.=.3.3.-.3.                  ",
"                    i.i.i.t.i.t.                    ",
"                                                    ",
"                                                    ",
"                                                    ",
"                                                    ",
"                                                    ",
"                                                    ",
"                                                    ",
"                    . . . . . .                     ",
"            . . . . . . . . . . . . . .             ",
"            . . . . . . . . . . . . .               ",
"                    . . . . . .                     "
};
